# xmcd
#
# Track frame offsets: 
#        150
#        23530
#        41850
#        64977
#        85167
#        111312
#        129742
#        151202
#        166167
#
# Disc length: 3094 seconds
#
# Revision: 0
# Processed by: cddbd v1.5.1PL0 Copyright (c) Steve Scherf et al.
# Submitted via: ExactAudioCopy v0.95a5
#
DISCID=700c1409
DTITLE=Blind Mississippi Morris and Brad Webb - Country Days
DYEAR=1900
DGENRE=Blues
TTITLE0=Hound Dog
TTITLE1=Country Days
TTITLE2=Times Like Deese
TTITLE3=In The UK
TTITLE4=Rocking Baby at Midnight
TTITLE5=Just a Woman
TTITLE6=Falling Down Drunk Again
TTITLE7=Greasey
TTITLE8=Rosie Mae
EXTD=
EXTT0=
EXTT1=
EXTT2=
EXTT3=
EXTT4=
EXTT5=
EXTT6=
EXTT7=
EXTT8=
PLAYORDER=
